# xmcd
#
# Track frame offsets:
#	150
#	18268
#	35303
#	49892
#	69070
#	84911
#	104821
#	123440
#	138859
#	154469
#	170243
#	182800
#	201361
#	219632
#	235047
#	248075
#	269990
#
# Disc length: 3879 seconds
#
# Revision: 0
# Processed by: cddbd v1.5.1PL2 Copyright (c) Steve Scherf et al.
# Submitted via: dBpowerAMP V4.0
#
DISCID=f90f2511
DTITLE=Mark McGuinn - One Man's Crazy
DYEAR=2005
DGENRE=Country
TTITLE0=One Man's Crazy
TTITLE1=115 lbs
TTITLE2=Deep
TTITLE3=Bring 'em Back
TTITLE4=Turtle
TTITLE5=Better a Painful Ending
TTITLE6=Trampoline
TTITLE7=Centerville
TTITLE8=Mona Lisa
TTITLE9=Everest 
TTITLE10=Y
TTITLE11=Wide Open
TTITLE12=Drink
TTITLE13=None Such
TTITLE14=Big Girl
TTITLE15=Disgusting
TTITLE16=We Could Be
EXTD=
EXTT0=
EXTT1=
EXTT2=
EXTT3=
EXTT4=
EXTT5=
EXTT6=
EXTT7=
EXTT8=
EXTT9=
EXTT10=
EXTT11=
EXTT12=
EXTT13=
EXTT14=
EXTT15=
EXTT16=
PLAYORDER=
